<svg width="180" height="343" viewBox="0 0 180 343" fill="none" xmlns="http://www.w3.org/2000/svg">
<path d="M178.704 160.155C175.202 139.195 156.951 123.222 134.963 123.222H45.0421C23.0626 123.222 4.81547 139.182 1.30096 160.13C0.895301 162.525 0.686035 164.989 0.686035 167.5V245.71C0.686035 248.221 0.895301 250.681 1.30096 253.076C4.09806 269.765 16.2514 283.291 32.1969 288.095C36.2623 289.323 40.5753 289.984 45.0421 289.984H134.963C139.429 289.984 143.742 289.323 147.808 288.095C163.758 283.287 175.915 269.753 178.704 253.051C179.105 250.664 179.314 248.213 179.314 245.71V167.5C179.314 164.998 179.105 162.542 178.704 160.155ZM142.572 288.095C140.1 288.535 137.559 288.765 134.963 288.765H45.0421C42.4457 288.765 39.9049 288.535 37.4324 288.095C17.2422 284.51 1.91165 266.896 1.91165 245.71V219.75C1.91165 146.395 61.4786 124.446 134.963 124.446C158.783 124.446 178.093 143.722 178.093 167.5V245.71C120.268 253.434 162.763 284.51 142.572 288.095Z" fill="#3F3D56"/>
<path d="M107.896 182.241L111.355 204.687L162.093 197.781L157.192 171.554L107.896 182.241Z" fill="#009EDD"/>
<path d="M147.716 56.2834H126.738V77.9596H147.716V56.2834Z" fill="#2F2E41"/>
<path d="M128.652 79.2161L133.841 63.676H143.956L144.488 79.2161H128.652Z" fill="#FFB6B6"/>
<path opacity="0.1" d="M128.652 79.2161L133.841 63.676H143.956L144.488 79.2161H128.652Z" fill="black"/>
<path d="M134.13 217.637L133.553 277.495L132.977 282.1V288.71L141.625 289.582L142.202 276.344C142.202 276.344 151.427 250.444 149.121 230.3C146.814 210.155 147.967 215.911 147.967 215.911L134.13 217.637Z" fill="#FFB6B6"/>
<path d="M139.62 222.338L118.343 278.304L117.203 282.803L114.794 288.96L106.42 286.632L110.707 274.091C110.707 274.091 111.552 246.616 121.042 228.689C130.531 210.762 127.359 215.705 127.359 215.705L139.62 222.338Z" fill="#FFB6B6"/>
<path d="M128.652 77.4893L113.085 84.396L123.025 135.627L121.454 209.158L111.076 231.029C111.076 231.029 109.337 243.537 127.211 235.48C145.085 227.422 165.265 225.12 165.265 225.12L160.364 191.45L156.039 103.102L156.616 83.5326L143.931 75.4749L128.652 77.4893V77.4893Z" fill="#2F2E41"/>
<path d="M119.982 231.829L102.707 202.961L122.448 135.628L113.085 84.3962L129.512 77.3762C129.512 77.3762 138.016 85.6426 138.016 92.4609C138.016 99.2793 119.982 231.829 119.982 231.829Z" fill="#E6E6E6"/>
<path d="M157.459 226.073L141.778 91.6072C141.58 89.9093 141.871 88.1902 142.615 86.651L147.103 77.3762L164.688 82.3817L157.619 137.354L176.508 191.45L157.459 226.073H157.459Z" fill="#E6E6E6"/>
<path d="M143.355 288.431C143.355 288.431 132.4 282.1 131.247 285.553C130.093 289.007 129.517 291.884 129.517 291.884C129.517 291.884 126.634 302.82 135.283 302.82C143.931 302.82 143.355 297.846 143.355 297.846V288.431Z" fill="#2F2E41"/>
<path d="M105.228 284.931C105.228 284.931 117.74 283.012 117.556 286.648C117.371 290.283 116.86 293.173 116.86 293.173C116.86 293.173 115.56 304.406 107.504 301.266C99.4478 298.125 101.797 293.701 101.797 293.701L105.228 284.931Z" fill="#2F2E41"/>
<path d="M139.573 72.1339C147.489 72.1339 153.907 65.7279 153.907 57.8256C153.907 49.9234 147.489 43.5173 139.573 43.5173C131.657 43.5173 125.24 49.9234 125.24 57.8256C125.24 65.7279 131.657 72.1339 139.573 72.1339Z" fill="#FFB6B6"/>
<path d="M151.025 45.0748C150.358 41.547 146.73 39.1609 143.146 38.8616C139.562 38.5624 136.052 39.9133 132.824 41.4972C130.636 42.5709 128.482 43.7811 126.71 45.4524C124.938 47.1236 123.562 49.3068 123.244 51.7197C123.131 52.5734 123.146 53.4653 122.796 54.2522C122.358 55.2353 121.42 55.9029 120.853 56.8178C119.837 58.4587 120.304 60.8459 121.863 61.9849C119.903 62.8189 117.889 63.6889 116.394 65.2055C114.9 66.722 114.037 69.0635 114.857 71.027C115.147 71.7217 115.626 72.3298 115.874 73.0406C116.345 74.3902 115.897 75.9236 115.062 77.0843C114.227 78.2451 113.048 79.1059 111.89 79.9462C114.866 80.5285 117.904 80.9822 120.924 80.7106C123.945 80.4389 126.977 79.3821 129.164 77.285C131.352 75.1878 132.555 71.9528 131.77 69.0284C131.169 66.7882 129.487 64.8251 129.489 62.5059C129.489 60.7231 130.494 59.1149 131.463 57.6178L137.816 47.8092C138.197 47.2211 138.599 46.6125 139.201 46.2528C140.225 45.6408 141.553 45.9099 142.633 46.4179C143.712 46.9258 144.699 47.6545 145.85 47.9695C148.199 48.6122 150.924 47.1361 151.665 44.8197" fill="#2F2E41"/>
<path d="M142.558 74.1736C141.364 75.3282 139.642 75.7001 138.047 76.168C136.452 76.6359 134.755 77.3717 134.037 78.8687C133.333 80.3367 133.844 82.2 135.01 83.338C136.175 84.4759 137.868 84.9553 139.498 84.9327C141.129 84.9101 142.717 84.4331 144.25 83.8794C148.442 82.3652 152.413 80.241 155.997 77.5949C153.675 76.9536 152.156 74.2474 152.821 71.936C153.362 70.0558 155.015 68.7444 156.14 67.1427C158.077 64.3849 158.4 60.7497 157.758 57.443C157.117 54.1363 155.607 51.071 154.112 48.0513C153.64 47.0967 153.156 46.126 152.419 45.3562C151.682 44.5866 150.639 44.0351 149.578 44.1454C147.818 44.3284 146.693 46.2576 146.682 48.0245C146.67 49.7913 147.446 51.4519 148.035 53.1181C148.642 54.8347 149.063 56.6544 148.901 58.4675C148.764 59.9869 148.211 61.4669 147.316 62.7037C146.625 63.6589 145.745 64.4604 144.994 65.3691C144.413 66.0716 143.898 66.8673 143.746 67.7653C143.468 69.3993 144.428 71.0528 144.165 72.6893C143.887 74.4192 142.063 75.7436 140.329 75.4754" fill="#2F2E41"/>
<path d="M98.7205 274.018C125.787 274.018 147.729 252.115 147.729 225.096C147.729 198.077 125.787 176.173 98.7205 176.173C71.6538 176.173 49.7119 198.077 49.7119 225.096C49.7119 252.115 71.6538 274.018 98.7205 274.018Z" fill="#009EDD"/>
<path d="M86.25 238.771H92.625V228.2C92.625 227.601 92.8286 227.099 93.2359 226.694C93.6432 226.288 94.1479 226.086 94.75 226.086H103.25C103.852 226.086 104.357 226.288 104.764 226.694C105.171 227.099 105.375 227.601 105.375 228.2V238.771H111.75V219.743L99 210.229L86.25 219.743V238.771ZM82 238.771V219.743C82 219.073 82.1505 218.439 82.4516 217.84C82.7526 217.241 83.1688 216.748 83.7 216.36L96.45 206.846C97.1938 206.282 98.0438 206 99 206C99.9562 206 100.806 206.282 101.55 206.846L114.3 216.36C114.831 216.748 115.247 217.241 115.548 217.84C115.849 218.439 116 219.073 116 219.743V238.771C116 239.934 115.584 240.93 114.752 241.758C113.919 242.586 112.919 243 111.75 243H103.25C102.648 243 102.143 242.797 101.736 242.392C101.329 241.987 101.125 241.485 101.125 240.886V230.314H96.875V240.886C96.875 241.485 96.6714 241.987 96.2641 242.392C95.8568 242.797 95.3521 243 94.75 243H86.25C85.0812 243 84.0807 242.586 83.2484 241.758C82.4161 240.93 82 239.934 82 238.771Z" fill="white"/>
<path d="M112.404 175.338C111.811 179.578 109.138 182.709 106.435 182.331C103.732 181.954 102.023 178.211 102.617 173.97C102.832 172.273 103.45 170.651 104.42 169.241L107.162 151.309L115.565 152.773L111.97 170.295C112.516 171.917 112.665 173.647 112.404 175.338Z" fill="#FFB6B6"/>
<path d="M119.715 83.5328C119.715 83.5328 111.067 80.6551 109.914 91.0151C108.76 101.375 107.607 114.037 107.607 114.037C107.607 114.037 102.418 126.124 104.724 132.455C107.031 138.786 111.067 134.372 107.031 139.745C102.995 145.117 103.557 162.794 103.557 162.794L116.544 162.142C116.544 162.142 123.751 114.613 123.751 113.462C123.751 112.311 119.715 83.5328 119.715 83.5328V83.5328Z" fill="#E6E6E6"/>
<path d="M175.931 173.414C176.092 177.692 174.011 181.242 171.283 181.344C168.556 181.445 166.216 178.06 166.056 173.781C165.968 172.072 166.292 170.367 166.999 168.809L166.548 150.675L175.077 150.645L174.617 168.525C175.44 170.027 175.89 171.703 175.931 173.414V173.414Z" fill="#FFB6B6"/>
<path d="M162.617 83.3384C162.617 83.3384 171.316 80.6153 172.283 90.9942C173.251 101.373 174.177 120.385 174.177 120.385C174.177 120.385 179.149 132.562 176.73 138.851C174.311 145.14 170.354 140.655 174.293 146.099C178.233 151.542 176.819 166.894 176.819 166.894L163.845 166.01C163.845 166.01 158.025 120.673 158.046 119.522C158.067 118.371 162.617 83.3384 162.617 83.3384V83.3384Z" fill="#E6E6E6"/>
<path d="M179.314 302.82H0.686035V304.18H179.314V302.82Z" fill="#3F3D56"/>
</svg>
