<svg width="180" height="394" viewBox="0 0 180 394" fill="none" xmlns="http://www.w3.org/2000/svg">
<path d="M178.704 185.655C175.202 164.695 156.95 148.722 134.962 148.722H45.0419C23.0624 148.722 4.81523 164.682 1.30072 185.63C0.895057 188.025 0.685791 190.489 0.685791 193V271.21C0.685791 273.721 0.895057 276.181 1.30072 278.576C4.09782 295.265 16.2512 308.791 32.1967 313.595C36.262 314.823 40.5751 315.484 45.0419 315.484H134.962C139.429 315.484 143.742 314.823 147.808 313.595C163.757 308.787 175.915 295.253 178.704 278.551C179.105 276.164 179.314 273.713 179.314 271.21V193C179.314 190.498 179.105 188.042 178.704 185.655ZM142.572 313.595C140.1 314.035 137.559 314.265 134.962 314.265H45.0419C42.4455 314.265 39.9046 314.035 37.4321 313.595C17.2419 310.01 1.91141 292.396 1.91141 271.21V245.25C1.91141 171.895 61.4784 149.946 134.962 149.946C158.782 149.946 178.093 169.222 178.093 193V271.21C120.268 278.934 162.762 310.01 142.572 313.595Z" fill="#3F3D56"/>
<path d="M107.895 207.741L111.355 230.187L162.093 223.281L157.192 197.054L107.895 207.741Z" fill="#009EDD"/>
<path d="M147.716 81.7834H126.738V103.46H147.716V81.7834Z" fill="#2F2E41"/>
<path d="M128.652 104.716L133.841 89.176H143.956L144.487 104.716H128.652Z" fill="#FFB6B6"/>
<path opacity="0.1" d="M128.652 104.716L133.841 89.176H143.956L144.487 104.716H128.652Z" fill="black"/>
<path d="M134.129 243.137L133.553 302.995L132.976 307.6V314.21L141.625 315.082L142.201 301.844C142.201 301.844 151.426 275.944 149.12 255.8C146.814 235.655 147.967 241.411 147.967 241.411L134.129 243.137Z" fill="#FFB6B6"/>
<path d="M139.62 247.838L118.343 303.804L117.202 308.303L114.794 314.46L106.42 312.132L110.707 299.591C110.707 299.591 111.552 272.116 121.041 254.189C130.531 236.262 127.359 241.205 127.359 241.205L139.62 247.838Z" fill="#FFB6B6"/>
<path d="M128.652 102.989L113.085 109.896L123.024 161.127L121.454 234.658L111.076 256.529C111.076 256.529 109.337 269.037 127.211 260.98C145.084 252.922 165.264 250.62 165.264 250.62L160.363 216.95L156.039 128.602L156.616 109.033L143.931 100.975L128.652 102.989V102.989Z" fill="#2F2E41"/>
<path d="M119.982 257.329L102.706 228.461L122.448 161.128L113.085 109.896L129.511 102.876C129.511 102.876 138.015 111.143 138.015 117.961C138.015 124.779 119.982 257.329 119.982 257.329Z" fill="#E6E6E6"/>
<path d="M157.459 251.573L141.778 117.107C141.58 115.409 141.87 113.69 142.615 112.151L147.102 102.876L164.688 107.882L157.619 162.854L176.507 216.95L157.459 251.573H157.459Z" fill="#E6E6E6"/>
<path d="M143.355 313.931C143.355 313.931 132.4 307.6 131.247 311.053C130.093 314.507 129.517 317.384 129.517 317.384C129.517 317.384 126.634 328.32 135.283 328.32C143.931 328.32 143.355 323.346 143.355 323.346V313.931Z" fill="#2F2E41"/>
<path d="M105.228 310.431C105.228 310.431 117.739 308.512 117.555 312.148C117.371 315.783 116.859 318.673 116.859 318.673C116.859 318.673 115.559 329.906 107.503 326.766C99.4473 323.625 101.797 319.201 101.797 319.201L105.228 310.431Z" fill="#2F2E41"/>
<path d="M139.573 97.6339C147.489 97.6339 153.906 91.2279 153.906 83.3256C153.906 75.4234 147.489 69.0173 139.573 69.0173C131.657 69.0173 125.239 75.4234 125.239 83.3256C125.239 91.2279 131.657 97.6339 139.573 97.6339Z" fill="#FFB6B6"/>
<path d="M151.025 70.5748C150.357 67.047 146.73 64.6609 143.146 64.3616C139.562 64.0624 136.051 65.4133 132.824 66.9972C130.636 68.0709 128.482 69.2811 126.71 70.9524C124.937 72.6236 123.561 74.8068 123.243 77.2197C123.131 78.0734 123.145 78.9653 122.795 79.7522C122.358 80.7353 121.419 81.4029 120.853 82.3178C119.837 83.9587 120.303 86.3459 121.863 87.4849C119.903 88.3189 117.888 89.1889 116.394 90.7055C114.899 92.222 114.036 94.5635 114.856 96.527C115.147 97.2217 115.626 97.8298 115.874 98.5406C116.345 99.8902 115.897 101.424 115.061 102.584C114.226 103.745 113.047 104.606 111.889 105.446C114.866 106.028 117.903 106.482 120.924 106.211C123.945 105.939 126.976 104.882 129.164 102.785C131.351 100.688 132.555 97.4528 131.77 94.5284C131.169 92.2882 129.487 90.3251 129.488 88.0059C129.489 86.2231 130.493 84.6149 131.463 83.1178L137.816 73.3092C138.197 72.7211 138.599 72.1125 139.201 71.7528C140.225 71.1408 141.553 71.4099 142.632 71.9179C143.712 72.4258 144.698 73.1545 145.849 73.4695C148.199 74.1122 150.924 72.6361 151.665 70.3197" fill="#2F2E41"/>
<path d="M142.557 99.6736C141.363 100.828 139.642 101.2 138.047 101.668C136.451 102.136 134.754 102.872 134.036 104.369C133.332 105.837 133.844 107.7 135.009 108.838C136.175 109.976 137.868 110.455 139.498 110.433C141.128 110.41 142.717 109.933 144.25 109.379C148.442 107.865 152.412 105.741 155.997 103.095C153.675 102.454 152.156 99.7474 152.821 97.436C153.361 95.5558 155.014 94.2444 156.139 92.6427C158.076 89.8849 158.399 86.2497 157.758 82.943C157.116 79.6363 155.606 76.571 154.112 73.5513C153.639 72.5967 153.156 71.626 152.419 70.8562C151.682 70.0866 150.638 69.5351 149.578 69.6454C147.817 69.8284 146.693 71.7576 146.681 73.5245C146.669 75.2913 147.446 76.9519 148.034 78.6181C148.641 80.3347 149.063 82.1544 148.9 83.9675C148.764 85.4869 148.21 86.9669 147.316 88.2037C146.625 89.1589 145.745 89.9604 144.994 90.8691C144.413 91.5716 143.898 92.3673 143.745 93.2653C143.468 94.8993 144.428 96.5528 144.165 98.1893C143.886 99.9192 142.063 101.244 140.328 100.975" fill="#2F2E41"/>
<path d="M98.7202 299.518C125.787 299.518 147.729 277.615 147.729 250.596C147.729 223.577 125.787 201.673 98.7202 201.673C71.6535 201.673 49.7117 223.577 49.7117 250.596C49.7117 277.615 71.6535 299.518 98.7202 299.518Z" fill="#009EDD"/>
<path d="M112.404 200.838C111.81 205.078 109.138 208.209 106.435 207.831C103.732 207.454 102.023 203.711 102.617 199.47C102.831 197.773 103.45 196.151 104.42 194.741L107.162 176.809L115.565 178.273L111.969 195.795C112.516 197.417 112.665 199.147 112.404 200.838Z" fill="#FFB6B6"/>
<path d="M119.715 109.033C119.715 109.033 111.067 106.155 109.913 116.515C108.76 126.875 107.607 139.537 107.607 139.537C107.607 139.537 102.418 151.624 104.724 157.955C107.031 164.286 111.067 159.872 107.031 165.245C102.995 170.617 103.557 188.294 103.557 188.294L116.544 187.642C116.544 187.642 123.751 140.113 123.751 138.962C123.751 137.811 119.715 109.033 119.715 109.033V109.033Z" fill="#E6E6E6"/>
<path d="M175.931 198.914C176.091 203.192 174.01 206.742 171.283 206.844C168.556 206.945 166.216 203.56 166.055 199.281C165.968 197.572 166.291 195.867 166.999 194.309L166.547 176.175L175.077 176.145L174.617 194.025C175.439 195.527 175.89 197.203 175.931 198.914V198.914Z" fill="#FFB6B6"/>
<path d="M162.616 108.838C162.616 108.838 171.315 106.115 172.283 116.494C173.25 126.873 174.177 145.885 174.177 145.885C174.177 145.885 179.149 158.062 176.729 164.351C174.31 170.64 170.354 166.155 174.293 171.599C178.232 177.042 176.818 192.394 176.818 192.394L163.845 191.51C163.845 191.51 158.025 146.173 158.045 145.022C158.066 143.871 162.616 108.838 162.616 108.838V108.838Z" fill="#E6E6E6"/>
<path d="M133.559 246.652H126.328C125.203 240.022 121.731 234.019 116.547 229.737C104.616 219.882 86.9554 221.565 77.1011 233.496C77.0674 233.534 77.0351 233.574 77.0041 233.614C76.2167 234.634 76.4058 236.1 77.4264 236.888C78.4469 237.675 79.9127 237.486 80.7003 236.465C84.981 231.279 91.4606 227.979 98.7056 227.979C109.798 227.98 119.358 235.784 121.58 246.652H115.203C114.93 246.652 114.666 246.747 114.457 246.922C113.962 247.334 113.895 248.07 114.307 248.566L123.485 259.583C123.53 259.637 123.58 259.686 123.634 259.731C124.129 260.144 124.865 260.078 125.277 259.583L134.455 248.566C134.63 248.356 134.725 248.092 134.726 247.819C134.726 247.174 134.203 246.652 133.559 246.652V246.652Z" fill="white"/>
<path d="M119.985 265.752C118.964 264.964 117.498 265.153 116.711 266.174C113.315 270.285 108.615 273.111 103.391 274.18C90.7569 276.767 78.4179 268.622 75.8311 255.988H82.208C82.8525 255.988 83.3748 255.465 83.3746 254.82C83.3745 254.548 83.2788 254.284 83.1043 254.074L73.9264 243.057C73.5137 242.562 72.7777 242.495 72.2828 242.908C72.2287 242.953 72.1789 243.003 72.1339 243.057L62.956 254.074C62.5437 254.569 62.6107 255.305 63.106 255.718C63.3156 255.892 63.5796 255.988 63.8525 255.988H71.0835C72.2086 262.617 75.68 268.621 80.8644 272.903C92.7953 282.757 110.456 281.074 120.31 269.143C120.344 269.105 120.376 269.066 120.407 269.026C121.195 268.005 121.006 266.539 119.985 265.752H119.985V265.752Z" fill="white"/>
<path d="M179.314 328.32H0.685791V329.68H179.314V328.32Z" fill="#3F3D56"/>
</svg>
